<?xml version="1.0" encoding="UTF-8" standalone="no"?>
<svg
   xmlns:dc="http://purl.org/dc/elements/1.1/"
   xmlns:cc="http://creativecommons.org/ns#"
   xmlns:rdf="http://www.w3.org/1999/02/22-rdf-syntax-ns#"
   xmlns:svg="http://www.w3.org/2000/svg"
   xmlns="http://www.w3.org/2000/svg"
   xmlns:sodipodi="http://sodipodi.sourceforge.net/DTD/sodipodi-0.dtd"
   xmlns:inkscape="http://www.inkscape.org/namespaces/inkscape"
   sodipodi:docname="h1-logo-(v3-svg).svg"
   inkscape:version="1.0 (4035a4fb49, 2020-05-01)"
   id="svg8"
   version="1.1"
   viewBox="0 0 175.34493 16.086931"
   height="60.800999"
   width="662.72101">
  <defs
     id="defs2" />
  <sodipodi:namedview
     inkscape:window-maximized="1"
     inkscape:window-y="-8"
     inkscape:window-x="-8"
     inkscape:window-height="1017"
     inkscape:window-width="1920"
     units="px"
     showgrid="false"
     inkscape:document-rotation="0"
     inkscape:current-layer="layer1"
     inkscape:document-units="px"
     inkscape:cy="271.57426"
     inkscape:cx="272.65832"
     inkscape:zoom="0.98994949"
     inkscape:pageshadow="2"
     inkscape:pageopacity="0.0"
     borderopacity="1.0"
     bordercolor="#666666"
     pagecolor="#ffffff"
     id="base" />
  <metadata
     id="metadata5">
    <rdf:RDF>
      <cc:Work
         rdf:about="">
        <dc:format>image/svg+xml</dc:format>
        <dc:type
           rdf:resource="http://purl.org/dc/dcmitype/StillImage" />
        <dc:title></dc:title>
      </cc:Work>
    </rdf:RDF>
  </metadata>
  <g
     id="layer1"
     inkscape:groupmode="layer"
     inkscape:label="Layer 1">
    <g
       id="g5728"
       transform="matrix(1,0,0,1.0000149,-106.87016,-58.209186)"
       style="display:inline;opacity:1">
      <g
         aria-label="&lt;h1&gt;header.one"
         id="text5726"
         style="font-style:normal;font-variant:normal;font-weight:bold;font-stretch:normal;font-size:21.6747px;line-height:125%;font-family:Arial;-inkscape-font-specification:'Arial Bold';letter-spacing:0px;word-spacing:0px;fill:#ffffff;fill-opacity:1;stroke:none;stroke-width:0.225777px;stroke-linecap:butt;stroke-linejoin:miter;stroke-opacity:1">
        <path
           d="M 106.87016,67.648667 V 65.51083 l 10.13885,-4.169839 v 2.328337 l -7.83168,2.815171 v 0.1905 l 7.83168,2.815171 v 2.328337 z"
           style="font-style:normal;font-variant:normal;font-weight:normal;font-stretch:normal;font-size:21.6747px;font-family:'Cascadia Code';-inkscape-font-specification:'Cascadia Code';fill:#ffffff;stroke-width:0.225777px"
           id="path5732" />
        <path
           d="m 125.75085,62.653326 q 1.77801,0 2.75167,1.079502 0.97367,1.079501 0.97367,3.048004 v 7.302512 h -2.24367 v -7.302512 q 0,-1.058335 -0.52916,-1.640419 -0.52917,-0.582084 -1.48167,-0.582084 -2.64584,0 -2.64584,3.217338 v 6.307677 h -2.24367 V 58.208319 h 2.24367 v 6.688677 h 0.21167 q 0.0952,-1.132418 0.8255,-1.682752 0.73025,-0.560918 2.13783,-0.560918 z"
           style="fill:#00a300;fill-opacity:1"
           id="path5734" />
        <path
           d="m 139.04354,72.11484 h 3.34434 v 1.968504 h -9.33451 V 72.11484 h 3.7465 V 61.129324 l -3.53484,0.804334 v -2.032003 l 3.53484,-0.846668 h 2.24367 z"
           style="fill:#00a300;fill-opacity:1"
           id="path5736" />
        <path
           d="m 145.49939,69.49017 7.40834,-2.815171 v -0.1905 l -7.40834,-2.815171 v -2.328337 l 10.13884,4.169839 v 2.137837 l -10.13884,4.16984 z"
           style="font-style:normal;font-variant:normal;font-weight:normal;font-stretch:normal;font-size:21.6747px;font-family:'Cascadia Code';-inkscape-font-specification:'Cascadia Code';fill:#ffffff;stroke-width:0.225777px"
           id="path5738" />
        <path
           d="m 163.85091,62.653326 q 1.77801,0 2.75167,1.079502 0.97367,1.079501 0.97367,3.048004 v 7.302512 h -2.24367 v -7.302512 q 0,-1.058335 -0.52917,-1.640419 -0.52916,-0.582084 -1.48166,-0.582084 -2.64584,0 -2.64584,3.217338 v 6.307677 h -2.24367 V 58.208319 h 2.24367 v 6.688677 h 0.21167 q 0.0952,-1.132418 0.8255,-1.682752 0.73025,-0.560918 2.13783,-0.560918 z"
           style="font-style:normal;font-variant:normal;font-weight:normal;font-stretch:normal;font-size:21.6747px;font-family:'Cascadia Code';-inkscape-font-specification:'Cascadia Code';fill:#ffffff;stroke-width:0.225777px"
           id="path5740" />
        <path
           d="m 180.61494,68.029668 q 0,0.772584 -0.0635,1.439335 h -7.57768 q 0.29633,1.397002 1.3335,2.127253 1.03717,0.730251 2.73051,0.730251 1.30175,0 2.75167,-0.296333 l 0.27517,1.968503 q -1.55576,0.296333 -3.28084,0.296333 -1.91559,0 -3.25967,-0.677334 -1.33351,-0.677334 -2.03201,-1.979086 -0.6985,-1.312336 -0.6985,-3.185588 0,-1.820337 0.59267,-3.122089 0.59267,-1.301752 1.72508,-1.989669 1.14301,-0.687918 2.74109,-0.687918 2.28601,0 3.52426,1.386419 1.23825,1.386419 1.23825,3.989923 z m -2.032,-0.275167 q 0,-1.502836 -0.71967,-2.317754 -0.70909,-0.814918 -1.98967,-0.814918 -1.30175,0 -2.07434,0.814918 -0.77258,0.814918 -0.91017,2.317754 z"
           style="font-style:normal;font-variant:normal;font-weight:normal;font-stretch:normal;font-size:21.6747px;font-family:'Cascadia Code';-inkscape-font-specification:'Cascadia Code';fill:#ffffff;stroke-width:0.225777px"
           id="path5742" />
        <path
           d="m 194.30979,72.284174 v 1.79917 l -3.59833,0.105833 -0.10584,-2.476504 h -0.22225 q -0.11642,1.270002 -1.0795,1.92617 -0.9525,0.656167 -2.55059,0.656167 -1.75683,0 -2.71992,-0.836084 -0.96308,-0.846668 -0.96308,-2.40242 0,-1.778003 1.29117,-2.730505 1.30175,-0.952501 3.683,-0.952501 1.29117,0 2.2225,0.264584 v -0.603251 q 0,-1.143002 -0.78316,-1.70392 -0.77259,-0.560917 -2.34951,-0.645584 l -2.68817,-0.127 0.21167,-1.905003 2.26484,0.08467 q 2.77283,0.105833 4.1275,1.259418 1.35467,1.153586 1.35467,3.376089 v 4.67784 z m -7.19667,0.211667 q 0.99483,0 1.70392,-0.34925 0.71966,-0.349251 1.0795,-0.910169 0.37041,-0.560917 0.37041,-1.174751 v -0.677335 q -0.52916,-0.137583 -1.05833,-0.169333 -0.51858,-0.04233 -1.31234,-0.04233 -1.3335,0 -2.02142,0.423334 -0.68791,0.423334 -0.68791,1.248836 0,0.814917 0.48683,1.238251 0.48684,0.412751 1.43934,0.412751 z"
           style="font-style:normal;font-variant:normal;font-weight:normal;font-stretch:normal;font-size:21.6747px;font-family:'Cascadia Code';-inkscape-font-specification:'Cascadia Code';fill:#ffffff;stroke-width:0.225777px"
           id="path5744" />
        <path
           d="m 205.67631,58.208319 v 15.875025 l -2.01083,0.105833 -0.1905,-1.841503 h -0.25401 q -0.10583,0.952502 -0.89958,1.449919 -0.79375,0.497417 -2.08492,0.497417 -1.41817,0 -2.42359,-0.656167 -0.99483,-0.666751 -1.524,-1.947336 -0.51858,-1.280586 -0.51858,-3.111505 0,-1.873253 0.51858,-3.206755 0.52917,-1.333502 1.53459,-2.02142 1.016,-0.698501 2.43417,-0.698501 1.34408,0 2.07433,0.560918 0.74084,0.550334 0.889,1.682752 h 0.21167 v -6.688677 z m -5.08001,14.181689 q 2.83634,0 2.83634,-1.905003 v -2.709338 q 0,-3.217338 -2.8575,-3.217338 -1.23825,0 -1.91559,1.047752 -0.66675,1.047751 -0.66675,2.973921 0,1.883836 0.65617,2.846921 0.65617,0.963085 1.94733,0.963085 z"
           style="font-style:normal;font-variant:normal;font-weight:normal;font-stretch:normal;font-size:21.6747px;font-family:'Cascadia Code';-inkscape-font-specification:'Cascadia Code';fill:#ffffff;stroke-width:0.225777px"
           id="path5746" />
        <path
           d="m 218.715,68.029668 q 0,0.772584 -0.0635,1.439335 h -7.57768 q 0.29633,1.397002 1.3335,2.127253 1.03717,0.730251 2.73051,0.730251 1.30175,0 2.75167,-0.296333 l 0.27516,1.968503 q -1.55575,0.296333 -3.28083,0.296333 -1.91559,0 -3.25968,-0.677334 -1.3335,-0.677334 -2.032,-1.979086 -0.6985,-1.312336 -0.6985,-3.185588 0,-1.820337 0.59267,-3.122089 0.59267,-1.301752 1.72508,-1.989669 1.14301,-0.687918 2.74109,-0.687918 2.28601,0 3.52426,1.386419 1.23825,1.386419 1.23825,3.989923 z m -2.032,-0.275167 q 0,-1.502836 -0.71967,-2.317754 -0.70909,-0.814918 -1.98967,-0.814918 -1.30175,0 -2.07434,0.814918 -0.77258,0.814918 -0.91017,2.317754 z"
           style="font-style:normal;font-variant:normal;font-weight:normal;font-stretch:normal;font-size:21.6747px;font-family:'Cascadia Code';-inkscape-font-specification:'Cascadia Code';fill:#ffffff;stroke-width:0.225777px"
           id="path5748" />
        <path
           d="m 229.04435,62.653326 q 1.16417,0 1.88383,0.444501 0.73026,0.433917 1.06892,1.354668 0.34925,0.920752 0.34925,2.413004 h -2.2225 q 0,-1.217085 -0.37042,-1.756836 -0.35983,-0.550334 -1.17475,-0.550334 -1.40758,0 -2.12725,1.206502 -0.70909,1.206502 -0.70909,3.492505 v 2.963338 h 2.75167 v 1.86267 H 221.001 v -1.86267 h 2.49767 v -7.493011 h -2.07433 v -1.86267 h 3.89467 l 0.381,2.878671 h 0.254 q 0.0952,-1.555752 0.85725,-2.317753 0.77259,-0.772585 2.23309,-0.772585 z"
           style="font-style:normal;font-variant:normal;font-weight:normal;font-stretch:normal;font-size:21.6747px;font-family:'Cascadia Code';-inkscape-font-specification:'Cascadia Code';fill:#ffffff;stroke-width:0.225777px"
           id="path5750" />
        <path
           d="m 239.20436,74.29501 q -0.42333,0 -0.78316,-0.211666 -0.35984,-0.211667 -0.5715,-0.571501 -0.21167,-0.359834 -0.21167,-0.783168 0,-0.423334 0.21167,-0.783168 0.21166,-0.359834 0.5715,-0.571501 0.35983,-0.211667 0.78316,-0.211667 0.42334,0 0.78317,0.211667 0.35984,0.211667 0.5715,0.571501 0.21167,0.359834 0.21167,0.783168 0,0.423334 -0.21167,0.783168 -0.21166,0.359834 -0.5715,0.571501 -0.35983,0.211666 -0.78317,0.211666 z"
           style="font-style:normal;font-variant:normal;font-weight:normal;font-stretch:normal;font-size:21.6747px;font-family:'Cascadia Code';-inkscape-font-specification:'Cascadia Code';fill:#ffffff;stroke-width:0.225777px"
           id="path5752" />
        <path
           d="m 251.90439,74.29501 q -1.54517,0 -2.65642,-0.677334 -1.10067,-0.687918 -1.68275,-1.98967 -0.5715,-1.312335 -0.5715,-3.153838 0,-1.841503 0.5715,-3.143255 0.58208,-1.312335 1.68275,-1.989669 1.11125,-0.687918 2.65642,-0.687918 1.54517,0 2.64584,0.687918 1.11125,0.677334 1.68275,1.989669 0.58209,1.301752 0.58209,3.143255 0,1.841503 -0.58209,3.153838 -0.5715,1.301752 -1.68275,1.98967 -1.10067,0.677334 -2.64584,0.677334 z m 0,-2.010836 q 1.23825,0 1.905,-0.984251 0.67734,-0.994835 0.67734,-2.825755 0,-1.830919 -0.67734,-2.815171 -0.66675,-0.994835 -1.905,-0.994835 -1.23825,0 -1.91558,0.994835 -0.66676,0.984252 -0.66676,2.815171 0,1.83092 0.66676,2.825755 0.67733,0.984251 1.91558,0.984251 z"
           style="font-style:normal;font-variant:normal;font-weight:normal;font-stretch:normal;font-size:21.6747px;font-family:'Cascadia Code';-inkscape-font-specification:'Cascadia Code';fill:#ffffff;stroke-width:0.225777px"
           id="path5754" />
        <path
           d="m 265.45107,62.653326 q 1.778,0 2.75167,1.079502 0.97367,1.079501 0.97367,3.048004 v 7.302512 h -2.24367 v -7.302512 q 0,-1.058335 -0.52917,-1.640419 -0.52916,-0.582084 -1.48167,-0.582084 -2.64583,0 -2.64583,3.217338 v 6.307677 H 260.0324 V 62.864993 h 2.032 l 0.17992,2.032003 h 0.24341 q 0.0953,-1.132418 0.82551,-1.682752 0.73025,-0.560918 2.13783,-0.560918 z"
           style="font-style:normal;font-variant:normal;font-weight:normal;font-stretch:normal;font-size:21.6747px;font-family:'Cascadia Code';-inkscape-font-specification:'Cascadia Code';fill:#ffffff;stroke-width:0.225777px"
           id="path5756" />
        <path
           d="m 282.21509,68.029668 q 0,0.772584 -0.0635,1.439335 h -7.57768 q 0.29634,1.397002 1.3335,2.127253 1.03717,0.730251 2.73051,0.730251 1.30175,0 2.75167,-0.296333 l 0.27517,1.968503 q -1.55576,0.296333 -3.28084,0.296333 -1.91559,0 -3.25967,-0.677334 -1.33351,-0.677334 -2.03201,-1.979086 -0.6985,-1.312336 -0.6985,-3.185588 0,-1.820337 0.59267,-3.122089 0.59267,-1.301752 1.72509,-1.989669 1.143,-0.687918 2.74108,-0.687918 2.28601,0 3.52426,1.386419 1.23825,1.386419 1.23825,3.989923 z m -2.032,-0.275167 q 0,-1.502836 -0.71967,-2.317754 -0.70908,-0.814918 -1.98967,-0.814918 -1.30175,0 -2.07434,0.814918 -0.77258,0.814918 -0.91016,2.317754 z"
           style="font-style:normal;font-variant:normal;font-weight:normal;font-stretch:normal;font-size:21.6747px;font-family:'Cascadia Code';-inkscape-font-specification:'Cascadia Code';fill:#ffffff;stroke-width:0.225777px"
           id="path5758" />
      </g>
    </g>
  </g>
</svg>
